<?xml version="1.0" encoding="UTF-8" standalone="no"?>
<!-- Created with Inkscape (http://www.inkscape.org/) -->

<svg
   width="166.69318mm"
   height="141.87691mm"
   viewBox="0 0 166.69318 141.87691"
   version="1.1"
   id="svg5"
   inkscape:version="1.1.2 (0a00cf5339, 2022-02-04)"
   sodipodi:docname="empty.svg"
   xmlns:inkscape="http://www.inkscape.org/namespaces/inkscape"
   xmlns:sodipodi="http://sodipodi.sourceforge.net/DTD/sodipodi-0.dtd"
   xmlns="http://www.w3.org/2000/svg"
   xmlns:svg="http://www.w3.org/2000/svg">
  <sodipodi:namedview
     id="namedview7"
     pagecolor="#505050"
     bordercolor="#eeeeee"
     borderopacity="1"
     inkscape:pageshadow="0"
     inkscape:pageopacity="0"
     inkscape:pagecheckerboard="0"
     inkscape:document-units="mm"
     showgrid="false"
     inkscape:snap-object-midpoints="true"
     showguides="false"
     inkscape:zoom="0.33184273"
     inkscape:cx="27.121281"
     inkscape:cy="-43.695398"
     inkscape:window-width="1920"
     inkscape:window-height="1003"
     inkscape:window-x="0"
     inkscape:window-y="40"
     inkscape:window-maximized="0"
     inkscape:current-layer="layer1">
    <sodipodi:guide
       position="-238.46288,70.577161"
       orientation="-118.32122,135.83369"
       id="guide1955" />
  </sodipodi:namedview>
  <defs
     id="defs2">
    <inkscape:path-effect
       effect="spiro"
       id="path-effect904"
       is_visible="true"
       lpeversion="1" />
  </defs>
  <g
     inkscape:label="Livello 1"
     inkscape:groupmode="layer"
     id="layer1"
     transform="translate(-270.06843,-44.41231)">
    <g
       id="path1734"
       style="fill:#000000" />
    <g
       id="path4549"
       transform="translate(1.0564038e-4,-0.75174542)"
       style="fill:#000000" />
    <g
       id="path4695"
       transform="translate(-0.00380036,-0.04471442)"
       style="fill:#000000" />
    <g
       id="g5078"
       transform="translate(32.05267,-0.044713)"
       style="fill:#000000" />
    <g
       id="rect5329"
       style="fill:#000000" />
    <g
       id="path5699"
       inkscape:transform-center-y="-58.572556"
       style="fill:#000000" />
    <g
       id="path5945"
       inkscape:transform-center-x="-29.286275"
       inkscape:transform-center-y="-50.725321"
       style="fill:#000000" />
    <g
       id="path5947"
       inkscape:transform-center-x="29.286279"
       inkscape:transform-center-y="-50.725319"
       style="fill:#e6e6e6"
       transform="translate(241.5234,13.064654)">
      <g
         id="g6051"
         style="fill:#e6e6e6">
        <path
           id="rect961"
           style="color:#000000;fill:#e6e6e6;stroke-width:3.77953;stroke-linecap:round;stroke-linejoin:round;-inkscape-stroke:none"
           d="M 107.88672,425.77344 V 616.9043 c 0,20.74348 17.05924,37.80273 37.80273,37.80273 h 554.41602 c 20.74348,0 37.80273,-17.05925 37.80273,-37.80273 V 425.77344 h -14.84375 -8.2832 -181.25781 c 0.18335,2.02858 0.29101,4.08136 0.29101,6.16211 0,5.87779 -0.75434,11.56048 -2.16015,16.96484 H 714.78125 V 616.9043 c 0,8.32717 -6.34861,14.66797 -14.67578,14.66797 H 145.68945 c -8.32716,0 -14.66797,-6.3408 -14.66797,-14.66797 V 448.90039 h 183.11914 c -1.4058,-5.40436 -2.16015,-11.08705 -2.16015,-16.96484 0,-2.08075 0.10766,-4.13353 0.29101,-6.16211 h -181.25 -15.96679 z"
           transform="scale(0.26458333)" />
        <path
           style="color:#000000;fill:#e6e6e6;stroke-width:6.121;stroke-linejoin:round;-inkscape-stroke:none"
           d="M 193.20366,115.04997 157.26433,83.744144"
           id="path4553" />
        <path
           style="color:#000000;fill:#e6e6e6;stroke-linejoin:round;-inkscape-stroke:none"
           d="m 159.29876,81.345912 -4.02148,4.617187 35.93945,31.304681 4.02148,-4.61523 z"
           id="path4555" />
        <path
           style="color:#000000;fill:#e6e6e6;stroke-width:6.121;stroke-linejoin:round;-inkscape-stroke:none"
           d="M 30.555245,115.71206 66.494575,84.406236"
           id="path4658"
           transform="translate(1.0564038e-4,-0.75174541)" />
        <path
           style="color:#000000;fill:#e6e6e6;stroke-linejoin:round;-inkscape-stroke:none"
           d="m 64.484375,82.097656 -35.939453,31.306644 4.021484,4.61523 35.9375,-31.304686 z"
           id="path4660"
           transform="translate(1.0564038e-4,-0.75174541)" />
        <path
           style="color:#000000;fill:#e6e6e6;stroke-width:6.121;stroke-linejoin:round;-inkscape-stroke:none"
           d="M 64.489081,84.451183 H 127.24548"
           id="path4990"
           transform="translate(-0.00380036,-0.04471442)" />
        <path
           style="color:#000000;fill:#e6e6e6;stroke-linejoin:round;-inkscape-stroke:none"
           d="m 64.488281,81.390625 v 6.121094 h 62.757809 v -6.121094 z"
           id="path4992"
           transform="translate(-0.00380036,-0.04471442)" />
        <path
           style="color:#000000;fill:#e6e6e6;stroke-width:6.121;stroke-linejoin:round;-inkscape-stroke:none"
           d="M 64.489081,84.451183 H 127.24548"
           id="path5074"
           transform="translate(32.05267,-0.044713)" />
        <path
           style="color:#000000;fill:#e6e6e6;stroke-linejoin:round;-inkscape-stroke:none"
           d="m 64.488281,81.390625 v 6.121094 h 62.757809 v -6.121094 z"
           id="path5076"
           transform="translate(32.05267,-0.044713)" />
        <path
           id="rect5102"
           style="color:#000000;fill:#e6e6e6;stroke-width:3.77953;stroke-linejoin:round;-inkscape-stroke:none"
           d="m 289.0625,425.77344 c -0.13954,2.03704 -0.2168,4.09002 -0.2168,6.16211 0,49.18492 39.95961,89.13672 89.14453,89.13672 h 89.81446 c 49.18488,0 89.14453,-39.9518 89.14453,-89.13672 0,-2.07209 -0.0773,-4.12507 -0.2168,-6.16211 h -23.20898 c 0.18344,2.0291 0.29101,4.08083 0.29101,6.16211 0,36.7686 -29.2412,66.00976 -66.00976,66.00976 h -89.81446 c -36.76859,0 -66.00976,-29.24116 -66.00976,-66.00976 0,-2.08128 0.10757,-4.13301 0.29101,-6.16211 z"
           transform="scale(0.26458333)" />
        <path
           style="color:#000000;fill:#e6e6e6;stroke-width:6.121;stroke-linejoin:round;-inkscape-stroke:none"
           d="M 111.89162,31.348394 V 53.196579"
           id="path5991" />
        <path
           style="color:#000000;fill:#e6e6e6;stroke-linejoin:round;-inkscape-stroke:none"
           d="m 108.83203,31.347656 v 21.84961 h 6.11914 v -21.84961 z"
           id="path5993" />
        <path
           style="color:#000000;fill:#e6e6e6;stroke-width:6.121;stroke-linejoin:round;-inkscape-stroke:none"
           d="M 146.63994,40.659179 135.71585,59.580263"
           id="path5997" />
        <path
           style="color:#000000;fill:#e6e6e6;stroke-linejoin:round;-inkscape-stroke:none"
           d="m 143.99023,39.128906 -10.92578,18.921875 5.30274,3.060547 10.92383,-18.921875 z"
           id="path5999" />
        <path
           style="color:#000000;fill:#e6e6e6;stroke-width:6.121;stroke-linejoin:round;-inkscape-stroke:none"
           d="M 77.143294,40.659183 88.067388,59.580264"
           id="path5985" />
        <path
           style="color:#000000;fill:#e6e6e6;stroke-linejoin:round;-inkscape-stroke:none"
           d="m 79.792969,39.128906 -5.300782,3.060547 10.923829,18.921875 5.302734,-3.060547 z"
           id="path5987" />
      </g>
    </g>
  </g>
</svg>
